<mxfile host="app.diagrams.net" modified="2023-10-30T01:21:07.954Z" agent="Mozilla/5.0 (Windows NT 10.0; Win64; x64) AppleWebKit/537.36 (KHTML, like Gecko) Chrome/118.0.0.0 Safari/537.36" version="21.6.8" etag="wkKNAcvd6lXmTGKUV7CY" type="github">
  <diagram name="Page-1" id="0Tcqb__I1J_xdQczo0h1">
    <mxGraphModel>
      <root>
        <mxCell id="0" />
        <mxCell id="1" parent="0" />
      </root>
    </mxGraphModel>
  </diagram>
</mxfile>
